<mxfile host="app.diagrams.net" modified="2024-02-02T08:27:23.533Z" agent="Mozilla/5.0 (Windows NT 10.0; Win64; x64) AppleWebKit/537.36 (KHTML, like Gecko) Chrome/121.0.0.0 Safari/537.36" etag="vGOItXEFfI61_rjpAXAp" version="23.1.1" type="github">
  <diagram name="第 1 页" id="u37pxwyiKMBJzAVB_MeW">
    <mxGraphModel dx="2074" dy="1132" grid="1" gridSize="10" guides="1" tooltips="1" connect="1" arrows="1" fold="1" page="1" pageScale="1" pageWidth="1227" pageHeight="1369" math="0" shadow="0">
      <root>
        <mxCell id="0" />
        <mxCell id="1" parent="0" />
        <mxCell id="r0Qp06DOVHWyGpfr9HJf-1" value="Domain Primitive" style="rounded=1;whiteSpace=wrap;html=1;" vertex="1" parent="1">
          <mxGeometry x="130" y="390" width="120" height="60" as="geometry" />
        </mxCell>
        <mxCell id="r0Qp06DOVHWyGpfr9HJf-2" value="Domain Object" style="rounded=1;whiteSpace=wrap;html=1;" vertex="1" parent="1">
          <mxGeometry x="320" y="390" width="120" height="60" as="geometry" />
        </mxCell>
        <mxCell id="r0Qp06DOVHWyGpfr9HJf-3" value="Value Object" style="rounded=1;whiteSpace=wrap;html=1;" vertex="1" parent="1">
          <mxGeometry x="130" y="280" width="120" height="60" as="geometry" />
        </mxCell>
        <mxCell id="r0Qp06DOVHWyGpfr9HJf-4" value="Entity" style="rounded=1;whiteSpace=wrap;html=1;" vertex="1" parent="1">
          <mxGeometry x="230" y="490" width="120" height="60" as="geometry" />
        </mxCell>
        <mxCell id="r0Qp06DOVHWyGpfr9HJf-12" style="edgeStyle=orthogonalEdgeStyle;rounded=0;orthogonalLoop=1;jettySize=auto;html=1;exitX=1;exitY=0.5;exitDx=0;exitDy=0;entryX=0;entryY=0.5;entryDx=0;entryDy=0;" edge="1" parent="1" source="r0Qp06DOVHWyGpfr9HJf-5" target="r0Qp06DOVHWyGpfr9HJf-6">
          <mxGeometry relative="1" as="geometry" />
        </mxCell>
        <mxCell id="r0Qp06DOVHWyGpfr9HJf-5" value="Repository" style="rounded=1;whiteSpace=wrap;html=1;" vertex="1" parent="1">
          <mxGeometry x="840" y="550" width="120" height="60" as="geometry" />
        </mxCell>
        <mxCell id="r0Qp06DOVHWyGpfr9HJf-6" value="Dao&lt;br&gt;提供CRUD" style="rounded=1;whiteSpace=wrap;html=1;" vertex="1" parent="1">
          <mxGeometry x="1030" y="550" width="120" height="60" as="geometry" />
        </mxCell>
        <mxCell id="r0Qp06DOVHWyGpfr9HJf-7" value="用户接口层" style="shape=cube;whiteSpace=wrap;html=1;boundedLbl=1;backgroundOutline=1;darkOpacity=0.05;darkOpacity2=0.1;" vertex="1" parent="1">
          <mxGeometry x="590" y="140" width="120" height="80" as="geometry" />
        </mxCell>
        <mxCell id="r0Qp06DOVHWyGpfr9HJf-8" value="应用程序层" style="shape=cube;whiteSpace=wrap;html=1;boundedLbl=1;backgroundOutline=1;darkOpacity=0.05;darkOpacity2=0.1;" vertex="1" parent="1">
          <mxGeometry x="590" y="260" width="120" height="80" as="geometry" />
        </mxCell>
        <mxCell id="r0Qp06DOVHWyGpfr9HJf-9" value="领域层" style="shape=cube;whiteSpace=wrap;html=1;boundedLbl=1;backgroundOutline=1;darkOpacity=0.05;darkOpacity2=0.1;" vertex="1" parent="1">
          <mxGeometry x="590" y="390" width="120" height="80" as="geometry" />
        </mxCell>
        <mxCell id="r0Qp06DOVHWyGpfr9HJf-10" value="基础设施层" style="shape=cube;whiteSpace=wrap;html=1;boundedLbl=1;backgroundOutline=1;darkOpacity=0.05;darkOpacity2=0.1;" vertex="1" parent="1">
          <mxGeometry x="590" y="530" width="120" height="80" as="geometry" />
        </mxCell>
        <mxCell id="r0Qp06DOVHWyGpfr9HJf-11" value="DTO" style="rounded=1;whiteSpace=wrap;html=1;" vertex="1" parent="1">
          <mxGeometry x="130" y="150" width="120" height="60" as="geometry" />
        </mxCell>
      </root>
    </mxGraphModel>
  </diagram>
</mxfile>
